<mxfile host="app.diagrams.net" modified="2023-11-27T10:06:55.967Z" agent="Mozilla/5.0 (Linux; Android 13; SAMSUNG SM-A037F) AppleWebKit/537.36 (KHTML, like Gecko) SamsungBrowser/23.0 Chrome/115.0.0.0 Mobile Safari/537.36" version="22.1.4" etag="z_Gvf9qMYy0hNLqNNUog" type="github">
  <diagram name="Страница — 1" id="PZFFxegrbu2a-D7KtQXK">
    <mxGraphModel>
      <root>
        <mxCell id="0" />
        <mxCell id="1" parent="0" />
      </root>
    </mxGraphModel>
  </diagram>
</mxfile>
